<?xml version="1.0" encoding="UTF-8"?>
<svg width="595.28pt" version="1.1" xmlns="http://www.w3.org/2000/svg" height="841.89pt" viewBox="0 0 595.28 841.89" xmlns:xlink="http://www.w3.org/1999/xlink">
 <defs>
  <path id="GlAlegreya-BlackItalic49" d="M3.11 6 C3.24 5.64 3.37 5.44 3.59 5.28 L3.48 4.85 C3.47 4.84 2.67 4.97 1.73 5.07 C1.32 5.12 0.89 5.17 0.42 5.21 L0.25 5.96 L0.33 6.06 C0.33 6.06 0.61 6.03 0.78 6.03 C1.15 6.03 1.22 6.14 1.17 6.6 L0.92 8.61 C0.87 9.03 0.59 9.23 -0.02 9.29 L-0.2 10.1 C-0.21 10.11 0.92 10 1.65 10 C2.17 10 3.16 10.06 3.16 10.06 L3.41 9.16 L3.38 9.1 C3.38 9.1 3.18 9.12 2.95 9.12 C2.74 9.12 2.64 8.97 2.64 8.65 C2.64 7.3 2.94 6.49 3.11 6 Z"/>
  <path id="GlAlegreya-BlackItalic70" d="M2.81 7.57 C2.98 7.55 3.26 7.51 3.54 7.51 C3.97 7.51 4.65 7.54 4.65 7.54 L4.93 6.39 L4.82 6.25 C4.82 6.25 4.08 6.31 3.8 6.31 L3 6.3 L3.23 5 C3.27 4.78 3.32 4.73 3.58 4.73 C4.05 4.73 4.21 4.83 4.21 5.16 C4.21 5.33 4.14 5.64 4.14 5.64 L5.54 5.56 C5.69 4.64 5.95 3.57 5.95 3.57 L5.84 3.41 C5.34 3.48 4.19 3.53 3.1 3.53 C2.2 3.53 0.8 3.5 0.8 3.5 L0.61 4.29 L0.71 4.43 C0.71 4.43 0.86 4.41 0.96 4.41 C1.17 4.41 1.21 4.52 1.16 4.95 L0.73 8.3 C0.65 8.9 0.49 9.1 0 9.18 L-0.2 10.1 C-0.2 10.1 0.88 10 1.91 10 C2.36 10 3.49 10.03 3.49 10.03 L3.75 8.95 L3.61 8.77 C3.61 8.77 3.35 8.85 3.05 8.85 C2.72 8.85 2.66 8.73 2.72 8.25 L2.81 7.57 Z"/>
  <path id="GlAlegreya-BlackItalic97" d="M4.42 8.43 C4.63 7.15 5.01 5.51 5.01 5.51 L4.93 5.28 L3.59 5.16 L3.4 5.28 L3.35 5.48 L2.63 5.28 C1.4 5.28 0.09 6.97 0.09 8.55 C0.09 9.54 0.65 10.12 1.6 10.12 C2.02 9.83 2.39 9.36 2.93 8.42 L3.03 8.42 C2.83 9.25 2.78 9.5 2.78 9.64 C2.78 9.96 2.95 10.12 3.29 10.12 C3.86 10.12 4.31 9.79 5.41 8.57 L5.21 8.09 L4.98 8.05 C4.64 8.37 4.52 8.46 4.46 8.46 L4.42 8.43 L4.42 8.43 Z M2.06 8.57 C1.98 8.57 1.92 8.3 1.92 7.91 C1.92 7.18 2.14 6.33 2.33 6.33 C2.54 6.33 2.8 6.42 3.07 6.59 C2.8 7.55 2.28 8.57 2.06 8.57 Z"/>
  <path id="GlAlegreya-BlackItalic116" d="M2.91 8.05 C2.61 8.39 2.46 8.5 2.33 8.5 C2.18 8.5 2.13 8.41 2.15 8.2 L2.5 6.28 L2.63 6.2 L3.57 6.21 L3.69 5.46 L3.62 5.39 L2.67 5.39 C2.81 4.71 2.98 4.05 2.98 4.05 L2.84 3.93 L1.16 4.28 C1.16 4.28 1.09 4.88 1.02 5.39 L0.3 5.5 L0.22 6.16 L0.25 6.21 L0.79 6.21 L0.88 6.29 L0.44 8.77 C0.34 9.62 0.83 10.12 1.76 10.12 C2.06 10.12 2.69 9.51 3.34 8.59 L3.13 8.09 L2.91 8.05 Z"/>
  <path id="GlAlegreya-BlackItalic101" d="M4.34 6.29 C4.34 5.6 3.81 5.17 2.96 5.17 C1.42 5.17 0.14 6.57 0.14 8.27 C0.14 9.39 0.79 10.12 1.78 10.12 C2.71 10.12 3.71 9.47 4.05 8.64 L3.53 8.06 L3.31 8.03 C3.03 8.52 2.74 8.74 2.4 8.74 C2.08 8.74 1.9 8.57 1.85 8.25 C3.64 7.71 4.34 7.22 4.34 6.29 L4.34 6.29 Z M2.59 6.37 C2.74 6.37 2.84 6.46 2.84 6.6 C2.84 6.9 2.51 7.19 1.88 7.43 C1.98 6.74 2.23 6.37 2.59 6.37 Z"/>
  <path id="GlAlegreya-BlackItalic65" d="M5.93 8.47 C5.79 7.39 5.31 3.54 5.31 3.54 L5.17 3.42 L2.5 3.58 L0.39 8.6 C0.26 8.91 0.07 9.09 -0.16 9.15 L-0.33 10.02 C-0.33 10.02 0.36 10.01 0.97 10.01 C1.56 10.01 2.47 10.04 2.47 10.04 L2.65 9.21 L2.58 9.11 L2.31 9.11 C2.15 9.11 2.08 9.07 2.08 8.96 C2.08 8.9 2.1 8.82 2.14 8.69 L2.27 8.25 C2.27 8.25 2.86 8.2 3.04 8.2 C3.12 8.2 3.77 8.22 3.77 8.22 L3.77 8.79 C3.77 9.02 3.67 9.07 3.11 9.13 L2.95 9.97 L3.02 10.06 C3.02 10.06 3.97 10.01 4.9 10.01 C5.44 10.01 6.28 10.03 6.28 10.03 L6.46 9.24 L6.4 9.14 C6.13 9.1 5.99 8.93 5.93 8.47 L5.93 8.47 Z M3.39 5.22 L3.61 5.22 L3.71 6.97 C3.5 6.98 3.37 6.99 3.22 6.99 L2.74 6.99 L3.39 5.22 Z"/>
  <path id="GlAlegreya-BlackItalic99" d="M2.53 6.37 C2.78 6.37 2.96 6.53 3.13 6.89 L3.56 6.88 L4.07 5.59 L4.03 5.41 C3.76 5.26 3.34 5.17 2.94 5.17 C1.4 5.17 0.13 6.59 0.13 8.33 C0.13 9.42 0.76 10.12 1.75 10.12 C2.57 10.12 3.52 9.43 3.84 8.59 L3.32 8.01 L3.11 7.98 C2.89 8.46 2.62 8.72 2.36 8.72 C2.05 8.72 1.88 8.45 1.88 7.94 C1.88 7.03 2.15 6.37 2.53 6.37 Z"/>
  <path id="GlAlegreya-BlackItalic108" d="M1.99 8.43 C2.2 6.92 3.04 2.78 3.04 2.78 L2.88 2.58 C2.88 2.58 1.52 2.7 0.61 2.7 L0.49 3.52 L0.77 3.52 C1 3.52 1.1 3.62 1.1 3.85 C1.1 4.12 0.22 9.1 0.22 9.45 C0.22 9.9 0.44 10.12 0.88 10.12 C1.43 10.12 1.92 9.78 2.98 8.57 L2.78 8.09 L2.55 8.05 C2.12 8.43 2.09 8.46 2.03 8.46 L1.99 8.43 Z"/>
  <path id="GlAlegreya-BlackItalic114" d="M0.29 9.84 L0.49 10.07 C1.25 10.07 1.93 9.83 1.97 9.55 L2.05 8.86 C2.48 7.64 2.93 7.06 3.43 7.06 C3.76 7.06 3.96 7.26 3.96 7.26 L4.15 7.17 C4.27 6.85 4.32 6.63 4.32 6.44 C4.32 5.86 4.12 5.44 3.71 5.16 C3.38 5.16 2.79 5.93 2.49 6.77 L2.42 6.78 C2.51 6.15 2.7 5.48 2.7 5.48 L2.56 5.27 C2.56 5.27 1.22 5.39 0.33 5.39 L0.21 6.21 L0.49 6.21 C0.72 6.21 0.82 6.31 0.82 6.54 C0.82 6.89 0.29 9.84 0.29 9.84 Z"/>
  <path id="GlAlegreya-BlackItalic100" d="M4.42 8.43 C4.75 6.61 5.47 2.78 5.47 2.78 L5.31 2.58 C5.31 2.58 3.95 2.7 3.04 2.7 L2.92 3.52 L3.2 3.52 C3.47 3.52 3.56 3.63 3.52 3.95 L3.3 5.47 L2.63 5.28 C1.4 5.28 0.09 6.97 0.09 8.55 C0.09 9.54 0.65 10.12 1.6 10.12 C2.03 9.81 2.41 9.33 2.93 8.42 L3.03 8.42 C2.82 9.29 2.78 9.5 2.78 9.64 C2.78 9.96 2.94 10.12 3.29 10.12 C3.86 10.12 4.31 9.79 5.41 8.57 L5.21 8.09 L4.98 8.05 C4.47 8.49 4.51 8.46 4.46 8.46 L4.42 8.43 L4.42 8.43 Z M2.06 8.57 C1.98 8.57 1.92 8.31 1.92 7.92 C1.92 7.18 2.14 6.33 2.33 6.33 C2.69 6.33 3.07 6.59 3.07 6.59 C2.79 7.56 2.28 8.57 2.06 8.57 Z"/>
  <path id="GlAlegreya-BlackItalic69" d="M2.69 8.49 C2.69 8.27 2.78 7.74 2.83 7.4 C3.01 7.38 3.28 7.34 3.56 7.34 C4 7.34 4.71 7.37 4.71 7.37 L4.99 6.22 L4.89 6.08 C4.89 6.08 4.11 6.14 3.82 6.14 C3.55 6.14 3.22 6.13 3.03 6.13 L3.23 5 C3.27 4.78 3.32 4.73 3.58 4.73 C4.24 4.73 4.44 4.81 4.44 5.16 C4.44 5.33 4.36 5.65 4.36 5.65 L5.76 5.56 C5.92 4.62 6.23 3.57 6.23 3.57 L6.12 3.41 C5.57 3.48 4.3 3.53 3.1 3.53 C2.2 3.53 0.8 3.5 0.8 3.5 L0.61 4.29 L0.71 4.43 C0.71 4.43 0.86 4.41 0.96 4.41 C1.17 4.41 1.21 4.52 1.16 4.95 L0.73 8.3 C0.66 8.9 0.49 9.1 0 9.18 L-0.2 10.1 C-0.2 10.1 0.88 10 1.9 10 C3.43 10 5.01 10.07 5.01 10.07 L5.18 9.91 C5.41 8.82 5.71 7.85 5.71 7.85 L5.6 7.7 L4.31 7.79 C4.08 8.69 3.89 8.85 3.09 8.85 C2.79 8.85 2.69 8.79 2.69 8.49 Z"/>
  <path id="GlAlegreya-BlackItalic105" d="M1.82 4.53 C2.5 4.53 2.96 4.07 2.96 3.33 C2.96 2.84 2.69 2.58 2.2 2.58 C1.5 2.58 1.04 3.02 1.04 3.75 C1.04 4.24 1.31 4.53 1.82 4.53 L1.82 4.53 Z M2.12 8.43 C2.33 6.92 2.7 5.47 2.7 5.47 L2.54 5.27 C2.54 5.27 1.2 5.39 0.31 5.39 L0.19 6.21 L0.47 6.21 C0.7 6.21 0.8 6.31 0.8 6.54 C0.8 6.83 0.35 9.45 0.35 9.45 C0.35 9.9 0.57 10.12 1.01 10.12 C1.56 10.12 2.05 9.78 3.11 8.57 L2.91 8.09 L2.68 8.05 C2.25 8.43 2.22 8.46 2.16 8.46 L2.12 8.43 Z"/>
  <path id="GlAlegreya-BlackItalic111" d="M2.36 9.05 C2.09 9.05 1.97 8.74 1.97 8.05 C1.97 7.01 2.17 6.36 2.49 6.36 C2.77 6.36 2.87 6.61 2.87 7.33 C2.87 8.54 2.72 9.05 2.36 9.05 L2.36 9.05 Z M1.98 10.12 C3.61 10.12 4.68 8.9 4.68 7.05 C4.68 5.83 4.05 5.16 2.89 5.16 C1.26 5.16 0.19 6.35 0.19 8.16 C0.19 9.41 0.84 10.12 1.98 10.12 Z"/>
  <path id="GlAlegreya-BlackItalic110" d="M4.52 8.4 C4.6 7.98 5.11 6.63 5.11 6.22 C5.11 5.55 4.55 5.15 3.62 5.15 C3.26 5.39 2.86 6 2.44 6.97 L2.37 6.98 C2.48 6.25 2.7 5.48 2.7 5.48 L2.56 5.27 C2.56 5.27 1.22 5.39 0.33 5.39 L0.21 6.21 L0.49 6.21 C0.76 6.21 0.85 6.32 0.81 6.64 C0.72 7.22 0.29 9.84 0.29 9.84 L0.49 10.07 C1.25 10.07 1.93 9.83 1.97 9.55 L2.04 8.96 C2.48 7.71 2.95 6.81 3.17 6.81 C3.29 6.81 3.35 6.9 3.35 7.09 C3.35 7.47 2.74 9.08 2.74 9.5 C2.74 9.91 2.94 10.09 3.4 10.09 C3.96 10.09 4.45 9.72 5.5 8.54 L5.31 8.06 L5.07 8.02 C4.66 8.39 4.6 8.43 4.55 8.43 L4.52 8.4 Z"/>
 </defs>
 <g id="Background">
  <g transform="translate(40, 776.485)">
   <path style="fill:#cccccc; fill-rule:evenodd;" d="M0 0 L96.4803 0 L105.875 32.64 L9.39467 32.64 L0 0 Z"/>
   <use style="fill:#000000;stroke:none;" xlink:href="#GlAlegreya-BlackItalic49" transform="matrix(1.8 0 0 1.8 45.253 1.77)"/>
   <path style="fill:none; stroke:#000000; stroke-width:1; stroke-linecap:butt; stroke-linejoin:miter; stroke-dasharray:none;" d="M0 0 L96.4803 0 L105.875 32.64 L9.39467 32.64 L0 0 Z"/>
  </g>
  <path style="fill:#ffffff; fill-rule:evenodd;stroke:#000000; stroke-width:1; stroke-linecap:butt; stroke-linejoin:miter; stroke-dasharray:1, 1;" d="M0 12.0866 C0 0 10.25 0 10.2386 0 C10.2281 0 515.016 0 525.352 0 C535.688 0 535.688 12.1888 535.688 12.1888 L535.688 768.747 C535.688 768.747 535.688 778.625 525.752 778.606 C515.816 778.586 278.357 778.121 278.357 778.121 L258 750.66 L10.25 750.66 C10.25 750.66 0 750.66 0 740.994 C0 731.329 0 23.3495 0 12.0866 Z" transform="translate(29.75, 30.5)"/>
  <g transform="translate(267.78, 782.75)">
   <use style="fill:#000000;stroke:none;" xlink:href="#GlAlegreya-BlackItalic70" transform="matrix(1.8 0 0 1.8 101.324 -1.634)"/>
   <use style="fill:#000000;stroke:none;" xlink:href="#GlAlegreya-BlackItalic97" transform="matrix(1.8 0 0 1.8 111.044 -1.634)"/>
   <use style="fill:#000000;stroke:none;" xlink:href="#GlAlegreya-BlackItalic116" transform="matrix(1.8 0 0 1.8 120.548 -1.634)"/>
   <use style="fill:#000000;stroke:none;" xlink:href="#GlAlegreya-BlackItalic101" transform="matrix(1.8 0 0 1.8 126.506 -1.634)"/>
   <use style="fill:#000000;stroke:none;" xlink:href="#GlAlegreya-BlackItalic65" transform="matrix(1.8 0 0 1.8 136.694 -1.634)"/>
   <use style="fill:#000000;stroke:none;" xlink:href="#GlAlegreya-BlackItalic99" transform="matrix(1.8 0 0 1.8 148.592 -1.634)"/>
   <use style="fill:#000000;stroke:none;" xlink:href="#GlAlegreya-BlackItalic99" transform="matrix(1.8 0 0 1.8 155.666 -1.634)"/>
   <use style="fill:#000000;stroke:none;" xlink:href="#GlAlegreya-BlackItalic101" transform="matrix(1.8 0 0 1.8 162.74 -1.634)"/>
   <use style="fill:#000000;stroke:none;" xlink:href="#GlAlegreya-BlackItalic108" transform="matrix(1.8 0 0 1.8 170.462 -1.634)"/>
   <use style="fill:#000000;stroke:none;" xlink:href="#GlAlegreya-BlackItalic101" transform="matrix(1.8 0 0 1.8 175.7 -1.634)"/>
   <use style="fill:#000000;stroke:none;" xlink:href="#GlAlegreya-BlackItalic114" transform="matrix(1.8 0 0 1.8 183.422 -1.634)"/>
   <use style="fill:#000000;stroke:none;" xlink:href="#GlAlegreya-BlackItalic97" transform="matrix(1.8 0 0 1.8 190.91 -1.634)"/>
   <use style="fill:#000000;stroke:none;" xlink:href="#GlAlegreya-BlackItalic116" transform="matrix(1.8 0 0 1.8 200.414 -1.634)"/>
   <use style="fill:#000000;stroke:none;" xlink:href="#GlAlegreya-BlackItalic101" transform="matrix(1.8 0 0 1.8 206.372 -1.634)"/>
   <use style="fill:#000000;stroke:none;" xlink:href="#GlAlegreya-BlackItalic100" transform="matrix(1.8 0 0 1.8 214.094 -1.634)"/>
   <use style="fill:#000000;stroke:none;" xlink:href="#GlAlegreya-BlackItalic69" transform="matrix(1.8 0 0 1.8 226.082 -1.634)"/>
   <use style="fill:#000000;stroke:none;" xlink:href="#GlAlegreya-BlackItalic100" transform="matrix(1.8 0 0 1.8 236.63 -1.634)"/>
   <use style="fill:#000000;stroke:none;" xlink:href="#GlAlegreya-BlackItalic105" transform="matrix(1.8 0 0 1.8 246.152 -1.634)"/>
   <use style="fill:#000000;stroke:none;" xlink:href="#GlAlegreya-BlackItalic116" transform="matrix(1.8 0 0 1.8 251.624 -1.634)"/>
   <use style="fill:#000000;stroke:none;" xlink:href="#GlAlegreya-BlackItalic105" transform="matrix(1.8 0 0 1.8 257.582 -1.634)"/>
   <use style="fill:#000000;stroke:none;" xlink:href="#GlAlegreya-BlackItalic111" transform="matrix(1.8 0 0 1.8 263.054 -1.634)"/>
   <use style="fill:#000000;stroke:none;" xlink:href="#GlAlegreya-BlackItalic110" transform="matrix(1.8 0 0 1.8 271.802 -1.634)"/>
   <path style="fill:none; stroke:none;" d="M0 0 L287.5 0 L287.5 26.14 L0 26.14 L0 0 Z"/>
  </g>
 </g>
 <g id="Background">
  <g transform="translate(40, 40)">
   <path style="fill:none; stroke:none;" d="M0 0 L515.28 0 L515.28 761.89 L0 761.89 L0 0 Z"/>
  </g>
 </g>
</svg>
